# xmcd
#
# Track frame offsets:
#	150
#	10125
#	23372
#	39980
#	56457
#	67600
#	77335
#	85870
#	100512
#	115287
#	126660
#	144155
#	159500
#	176127
#	190162
#
# Disc length: 2894
#
# Revision: 3
# Processed by: cddbd v1.5.1PL0 Copyright (c) Steve Scherf et al.
# Submitted via: ExactAudioCopy v0.90b4
# Normalized: r2:DSETVAR1
#
DISCID=aa0b4c0f
DTITLE=Various Artist - All About The Blues
DYEAR=2000
DGENRE=Blues
TTITLE0=Dinah Washington - Romance In The Dark
TTITLE1=Esther Phillips - In The Evenin'
TTITLE2=Gladys Knight and The Pips - Midnight Train To Georgia
TTITLE3=Dorothy Moore - Misty Blue
TTITLE4=Maxine Brown - Yesterday's Kisses
TTITLE5=Shirelles - Boys
TTITLE6=Mary Wells - In The Midnight Hour
TTITLE7=Tina Turner - Stormy Weather
TTITLE8=Ida Cox - Wild Women Don't Have The Blues
TTITLE9=Nina Simone - I Want A Little Sugar In My Bowl
TTITLE10=Big Maybelle - What A Difference A Day Makes
TTITLE11=Sarah Vaughn - Come Rain Or Come Shine
TTITLE12=Etta Jones - Trav'lin' Light
TTITLE13=Peggy Lee - Black Coffee
TTITLE14=Ruth Brown - Good Morning Heartache
EXTD=
EXTT0=
EXTT1=
EXTT2=
EXTT3=
EXTT4=
EXTT5=
EXTT6=
EXTT7=
EXTT8=
EXTT9=
EXTT10=
EXTT11=
EXTT12=
EXTT13=
EXTT14=
PLAYORDER=
